<svg xmlns="http://www.w3.org/2000/svg" width="47" height="29" viewBox="0 0 47 29"><defs><linearGradient id="gradient0" x1="5.73141" y1="4.29912" x2="23.148399" y2="35.113098" spreadMethod="pad"><stop offset="0" stop-color="#2d85f3"/><stop offset="1" stop-color="#db00ff"/><stop offset="1" stop-color="#fb62aa"/></linearGradient></defs><path d="M 39.74760055541992 0.25808700919151306 C 43.27289962768555 0.25808700919151306 46.07720184326172 3.1590700149536133 46.07720184326172 6.670949935913086 L 46.05619812011719 22.3302001953125 C 46.05619812011719 25.842100143432617 43.25199890136719 28.743099212646484 39.726600646972656 28.743099212646484 L 6.546070098876953 28.743099212646484 C 3.0207600593566895 28.743099212646484 0.21649199724197388 25.842100143432617 0.21649199724197388 22.3302001953125 L 0.23741599917411804 6.670949935913086 C 0.23741599917411804 3.1590700149536133 3.0416901111602783 0.25808700919151306 6.566989898681641 0.25808700919151306 L 39.74760055541992 0.25808700919151306 Z " fill="#505050" stroke="none" stroke-width="1" stroke-miterlimit="4" stroke-linejoin="miter" stroke-linecap="butt" fill-rule="evenodd"/><path d="M 39.71839904785156 3.787519931793213 C 42.24319839477539 3.787519931793213 44.290000915527344 5.871500015258789 44.290000915527344 8.442230224609375 L 44.290000915527344 22.406400680541992 C 44.290000915527344 24.977100372314453 42.24319839477539 27.061100006103516 39.71839904785156 27.061100006103516 L 6.603149890899658 27.02079963684082 C 4.078330039978027 27.02079963684082 2.031559944152832 24.936800003051758 2.031559944152832 22.366100311279297 L 2.031559944152832 8.401909828186035 C 2.031559944152832 5.831180095672607 4.078330039978027 3.747189998626709 6.603149890899658 3.747189998626709 L 39.71839904785156 3.787519931793213 Z " fill="#808080" stroke="none" stroke-width="1" stroke-miterlimit="4" stroke-linejoin="miter" stroke-linecap="butt" fill-rule="evenodd"/><path d="M 39.71160125732422 3.2370500564575195 L 39.71269989013672 3.2370500564575195 C 41.700599670410156 3.2370500564575195 43.34090042114258 4.882559776306152 43.34090042114258 6.948430061340332 L 43.340999603271484 6.952040195465088 L 43.39310073852539 20.581499099731445 C 43.39310073852539 20.582000732421875 43.39310073852539 20.582500457763672 43.39310073852539 20.58300018310547 C 43.39229965209961 22.6476993560791 41.752899169921875 24.292200088500977 39.7661018371582 24.292800903320312 C 39.76570129394531 24.292800903320312 39.76530075073242 24.292800903320312 39.76490020751953 24.292800903320312 L 6.638360023498535 24.252500534057617 L 6.637199878692627 24.252500534057617 C 4.645619869232178 24.252500534057617 2.9898500442504883 22.597999572753906 2.9898500442504883 20.535999298095703 L 2.989840030670166 20.533700942993164 L 2.956779956817627 6.908090114593506 C 2.956779956817627 6.9077301025390625 2.956779956817627 6.907370090484619 2.956779956817627 6.907010078430176 C 2.957350015640259 4.841839790344238 4.597229957580566 3.197000026702881 6.584469795227051 3.1967101097106934 C 6.584650039672852 3.1967101097106934 6.584829807281494 3.1967101097106934 6.585010051727295 3.1967101097106934 L 39.71160125732422 3.2370500564575195 Z " fill="#757575" stroke="none" stroke-width="1" stroke-miterlimit="4" stroke-linejoin="miter" stroke-linecap="butt" fill-rule="nonzero"/><path d="M 39.71160125732422 3.2370500564575195 L 39.71269989013672 3.2370500564575195 C 41.700599670410156 3.2370500564575195 43.34090042114258 4.882559776306152 43.34090042114258 6.948430061340332 L 43.340999603271484 6.952040195465088 L 43.39310073852539 20.581499099731445 C 43.39310073852539 20.582000732421875 43.39310073852539 20.582500457763672 43.39310073852539 20.58300018310547 C 43.39229965209961 22.6476993560791 41.752899169921875 24.292200088500977 39.7661018371582 24.292800903320312 C 39.76570129394531 24.292800903320312 39.76530075073242 24.292800903320312 39.76490020751953 24.292800903320312 L 6.638360023498535 24.252500534057617 L 6.637199878692627 24.252500534057617 C 4.645619869232178 24.252500534057617 2.9898500442504883 22.597999572753906 2.9898500442504883 20.535999298095703 L 2.989840030670166 20.533700942993164 L 2.956779956817627 6.908090114593506 C 2.956779956817627 6.9077301025390625 2.956779956817627 6.907370090484619 2.956779956817627 6.907010078430176 C 2.957350015640259 4.841839790344238 4.597229957580566 3.197000026702881 6.584469795227051 3.1967101097106934 C 6.584650039672852 3.1967101097106934 6.584829807281494 3.1967101097106934 6.585010051727295 3.1967101097106934 L 39.71160125732422 3.2370500564575195 Z " fill="none" stroke="url(#gradient0)" stroke-width="1.89019" stroke-miterlimit="4" stroke-linejoin="miter" stroke-linecap="butt" fill-rule="nonzero"/><path d="M 39.71160125732422 3.2370500564575195 L 39.71269989013672 3.2370500564575195 C 41.700599670410156 3.2370500564575195 43.34090042114258 4.882559776306152 43.34090042114258 6.948430061340332 L 43.340999603271484 6.952040195465088 L 43.39310073852539 20.581499099731445 C 43.39310073852539 20.582000732421875 43.39310073852539 20.582500457763672 43.39310073852539 20.58300018310547 C 43.39229965209961 22.6476993560791 41.752899169921875 24.292200088500977 39.7661018371582 24.292800903320312 C 39.76570129394531 24.292800903320312 39.76530075073242 24.292800903320312 39.76490020751953 24.292800903320312 L 6.638360023498535 24.252500534057617 L 6.637199878692627 24.252500534057617 C 4.645619869232178 24.252500534057617 2.9898500442504883 22.597999572753906 2.9898500442504883 20.535999298095703 L 2.989840030670166 20.533700942993164 L 2.956779956817627 6.908090114593506 C 2.956779956817627 6.9077301025390625 2.956779956817627 6.907370090484619 2.956779956817627 6.907010078430176 C 2.957350015640259 4.841839790344238 4.597229957580566 3.197000026702881 6.584469795227051 3.1967101097106934 C 6.584650039672852 3.1967101097106934 6.584829807281494 3.1967101097106934 6.585010051727295 3.1967101097106934 L 39.71160125732422 3.2370500564575195 Z " fill="none" stroke="#a6a6a6" stroke-width="1.89019" stroke-miterlimit="4" stroke-linejoin="miter" stroke-linecap="butt" fill-rule="nonzero"/><path d="M 25.114700317382812 8.799790382385254 L 38.61470031738281 8.799790382385254 " fill="none" stroke="#a6a6a6" stroke-width="1.85" stroke-miterlimit="4" stroke-linejoin="miter" stroke-linecap="butt" fill-rule="nonzero"/></svg>
