<svg xmlns="http://www.w3.org/2000/svg" width="220" height="47" viewBox="0 0 220 47"><path d="M 6.224999904632568 34.875 C 4.449999809265137 34.875 2.799999952316284 33.82500076293945 1.274999976158142 31.725000381469727 C 0.75 31.0 0.32499998807907104 30.1875 0.0 29.287500381469727 L 4.275000095367432 28.162500381469727 C 4.900000095367432 29.287500381469727 5.537499904632568 30.0625 6.1875 30.487499237060547 L 11.850000381469727 30.487499237060547 C 11.925000190734863 30.487499237060547 12.175000190734863 30.274999618530273 12.600000381469727 29.850000381469727 C 13.024999618530273 29.424999237060547 13.237500190734863 29.174999237060547 13.237500190734863 29.100000381469727 L 13.237500190734863 26.962499618530273 C 13.237500190734863 26.837499618530273 13.199999809265137 26.762500762939453 13.125 26.737499237060547 L 3.637500047683716 24.1875 C 2.637500047683716 23.912500381469727 1.8624999523162842 23.362499237060547 1.3125 22.537500381469727 C 0.7875000238418579 21.712499618530273 0.5249999761581421 20.8125 0.5249999761581421 19.837499618530273 L 0.5249999761581421 17.887500762939453 C 0.5249999761581421 17.337499618530273 0.574999988079071 16.875 0.675000011920929 16.5 C 0.7749999761581421 16.125 0.987500011920929 15.712499618530273 1.3125 15.262499809265137 C 1.587499976158142 14.862500190734863 1.975000023841858 14.412500381469727 2.4749999046325684 13.912500381469727 C 2.9749999046325684 13.412500381469727 3.4124999046325684 13.037500381469727 3.7874999046325684 12.787500381469727 C 4.237500190734863 12.462499618530273 4.650000095367432 12.25 5.025000095367432 12.149999618530273 C 5.400000095367432 12.050000190734863 5.862500190734863 12.0 6.412499904632568 12.0 L 11.662500381469727 12.0 C 12.6875 12.0 13.625 12.324999809265137 14.475000381469727 12.975000381469727 C 15.324999809265137 13.600000381469727 16.037500381469727 14.324999809265137 16.612499237060547 15.149999618530273 C 17.162500381469727 15.925000190734863 17.587499618530273 16.737499237060547 17.887500762939453 17.587499618530273 L 13.612500190734863 18.712499618530273 C 12.987500190734863 17.587499618530273 12.350000381469727 16.8125 11.699999809265137 16.387500762939453 L 6.487500190734863 16.387500762939453 C 6.412499904632568 16.387500762939453 6.162499904632568 16.600000381469727 5.737500190734863 17.024999618530273 C 5.3125 17.450000762939453 5.099999904632568 17.700000762939453 5.099999904632568 17.774999618530273 L 5.099999904632568 19.6875 C 5.099999904632568 19.762500762939453 5.112500190734863 19.825000762939453 5.137499809265137 19.875 C 5.162499904632568 19.899999618530273 5.1875 19.912500381469727 5.212500095367432 19.912500381469727 L 14.737500190734863 22.5 C 15.712499618530273 22.774999618530273 16.475000381469727 23.325000762939453 17.024999618530273 24.149999618530273 C 17.575000762939453 24.975000381469727 17.850000381469727 25.875 17.850000381469727 26.850000381469727 L 17.850000381469727 28.987499237060547 C 17.850000381469727 29.537500381469727 17.799999237060547 30.0 17.700000762939453 30.375 C 17.600000381469727 30.75 17.387500762939453 31.162500381469727 17.0625 31.612499237060547 C 16.787500381469727 32.01250076293945 16.399999618530273 32.462501525878906 15.899999618530273 32.962501525878906 C 15.399999618530273 33.462501525878906 14.962499618530273 33.837501525878906 14.587499618530273 34.087501525878906 C 14.137499809265137 34.412498474121094 13.725000381469727 34.625 13.350000381469727 34.724998474121094 C 12.975000381469727 34.82500076293945 12.512499809265137 34.875 11.962499618530273 34.875 L 6.224999904632568 34.875 Z " fill="#000000" stroke="none" stroke-width="1" stroke-miterlimit="4" stroke-linejoin="miter" stroke-linecap="butt" fill-rule="nonzero"/><path d="M 25.48710060119629 34.875 C 24.93709945678711 34.875 24.474599838256836 34.82500076293945 24.099599838256836 34.724998474121094 C 23.724599838256836 34.625 23.31209945678711 34.412498474121094 22.86210060119629 34.087501525878906 C 22.462099075317383 33.8125 22.012100219726562 33.42499923706055 21.512100219726562 32.92499923706055 C 21.037099838256836 32.42499923706055 20.662099838256836 31.987499237060547 20.387100219726562 31.612499237060547 C 20.06209945678711 31.162500381469727 19.849599838256836 30.75 19.74959945678711 30.375 C 19.649599075317383 30.0 19.599599838256836 29.537500381469727 19.599599838256836 28.987499237060547 L 19.599599838256836 12.1875 L 24.17460060119629 12.1875 L 24.17460060119629 29.100000381469727 C 24.17460060119629 29.174999237060547 24.387100219726562 29.424999237060547 24.81209945678711 29.850000381469727 C 25.23710060119629 30.274999618530273 25.48710060119629 30.487499237060547 25.56209945678711 30.487499237060547 L 30.662099838256836 30.487499237060547 C 30.73710060119629 30.487499237060547 30.98710060119629 30.274999618530273 31.412099838256836 29.850000381469727 C 31.837099075317383 29.424999237060547 32.049598693847656 29.174999237060547 32.049598693847656 29.100000381469727 L 32.049598693847656 12.1875 L 36.62459945678711 12.1875 L 36.62459945678711 28.987499237060547 C 36.62459945678711 29.537500381469727 36.57460021972656 30.0 36.47460174560547 30.375 C 36.37459945678711 30.75 36.16210174560547 31.162500381469727 35.837100982666016 31.612499237060547 C 35.56209945678711 32.01250076293945 35.174598693847656 32.462501525878906 34.674598693847656 32.962501525878906 C 34.174598693847656 33.462501525878906 33.737098693847656 33.837501525878906 33.362098693847656 34.087501525878906 C 32.91210174560547 34.412498474121094 32.49959945678711 34.625 32.12459945678711 34.724998474121094 C 31.74959945678711 34.82500076293945 31.287099838256836 34.875 30.73710060119629 34.875 L 25.48710060119629 34.875 Z " fill="#000000" stroke="none" stroke-width="1" stroke-miterlimit="4" stroke-linejoin="miter" stroke-linecap="butt" fill-rule="nonzero"/><path d="M 54.88359832763672 15.449999809265137 C 55.20859909057617 15.899999618530273 55.42110061645508 16.3125 55.52109909057617 16.6875 C 55.62110137939453 17.0625 55.67110061645508 17.524999618530273 55.67110061645508 18.075000762939453 L 55.67110061645508 20.212499618530273 C 55.67110061645508 20.762500762939453 55.62110137939453 21.225000381469727 55.52109909057617 21.600000381469727 C 55.42110061645508 21.975000381469727 55.20859909057617 22.387500762939453 54.88359832763672 22.837499618530273 C 54.60860061645508 23.237499237060547 54.221099853515625 23.6875 53.721099853515625 24.1875 C 53.221099853515625 24.662500381469727 52.783599853515625 25.037500381469727 52.408599853515625 25.3125 C 51.95859909057617 25.637500762939453 51.54610061645508 25.850000381469727 51.17110061645508 25.950000762939453 C 50.79610061645508 26.049999237060547 50.33359909057617 26.100000381469727 49.783599853515625 26.100000381469727 L 43.74610137939453 26.100000381469727 L 43.74610137939453 34.6875 L 39.17110061645508 34.6875 L 39.17110061645508 12.1875 L 49.783599853515625 12.1875 C 50.33359909057617 12.1875 50.79610061645508 12.237500190734863 51.17110061645508 12.337499618530273 C 51.54610061645508 12.4375 51.95859909057617 12.649999618530273 52.408599853515625 12.975000381469727 C 52.80860137939453 13.25 53.24610137939453 13.637499809265137 53.721099853515625 14.137499809265137 C 54.221099853515625 14.637499809265137 54.60860061645508 15.074999809265137 54.88359832763672 15.449999809265137 Z M 51.096099853515625 17.962499618530273 C 51.096099853515625 17.887500762939453 50.88359832763672 17.637500762939453 50.45859909057617 17.212499618530273 C 50.033599853515625 16.787500381469727 49.783599853515625 16.575000762939453 49.70859909057617 16.575000762939453 L 43.74610137939453 16.575000762939453 L 43.74610137939453 21.712499618530273 L 49.70859909057617 21.712499618530273 C 49.783599853515625 21.712499618530273 50.033599853515625 21.5 50.45859909057617 21.075000762939453 C 50.88359832763672 20.649999618530273 51.096099853515625 20.399999618530273 51.096099853515625 20.325000762939453 L 51.096099853515625 17.962499618530273 Z " fill="#000000" stroke="none" stroke-width="1" stroke-miterlimit="4" stroke-linejoin="miter" stroke-linecap="butt" fill-rule="nonzero"/><path d="M 72.6093978881836 16.575000762939453 L 62.409400939941406 16.575000762939453 L 62.409400939941406 21.1875 L 72.27189636230469 21.1875 L 72.27189636230469 25.575000762939453 L 62.409400939941406 25.575000762939453 L 62.409400939941406 30.299999237060547 L 72.6093978881836 30.299999237060547 L 72.6093978881836 34.6875 L 57.83440017700195 34.6875 L 57.83440017700195 12.1875 L 72.6093978881836 12.1875 L 72.6093978881836 16.575000762939453 Z " fill="#000000" stroke="none" stroke-width="1" stroke-miterlimit="4" stroke-linejoin="miter" stroke-linecap="butt" fill-rule="nonzero"/><path d="M 83.20780181884766 26.100000381469727 L 79.60780334472656 26.100000381469727 L 79.60780334472656 34.6875 L 75.03279876708984 34.6875 L 75.03279876708984 12.1875 L 85.64530181884766 12.1875 C 86.19529724121094 12.1875 86.65779876708984 12.237500190734863 87.03279876708984 12.337499618530273 C 87.40779876708984 12.4375 87.82029724121094 12.649999618530273 88.27030181884766 12.975000381469727 C 88.67030334472656 13.25 89.10780334472656 13.637499809265137 89.58280181884766 14.137499809265137 C 90.08280181884766 14.637499809265137 90.47029876708984 15.074999809265137 90.74530029296875 15.449999809265137 C 91.07029724121094 15.899999618530273 91.28279876708984 16.3125 91.38279724121094 16.6875 C 91.48280334472656 17.0625 91.53279876708984 17.524999618530273 91.53279876708984 18.075000762939453 L 91.53279876708984 20.212499618530273 C 91.53279876708984 20.762500762939453 91.48280334472656 21.225000381469727 91.38279724121094 21.600000381469727 C 91.28279876708984 21.975000381469727 91.07029724121094 22.387500762939453 90.74530029296875 22.837499618530273 C 90.47029876708984 23.237499237060547 90.08280181884766 23.6875 89.58280181884766 24.1875 C 89.08280181884766 24.662500381469727 88.64530181884766 25.037500381469727 88.27030181884766 25.3125 C 88.07029724121094 25.462499618530273 87.92030334472656 25.5625 87.82029724121094 25.612499237060547 L 92.77030181884766 34.6875 L 87.67030334472656 34.6875 L 83.20780181884766 26.100000381469727 Z M 79.60780334472656 21.712499618530273 L 85.57029724121094 21.712499618530273 C 85.64530181884766 21.712499618530273 85.89530181884766 21.5 86.32029724121094 21.075000762939453 C 86.74530029296875 20.649999618530273 86.95780181884766 20.399999618530273 86.95780181884766 20.325000762939453 L 86.95780181884766 17.962499618530273 C 86.95780181884766 17.887500762939453 86.74530029296875 17.637500762939453 86.32029724121094 17.212499618530273 C 85.89530181884766 16.787500381469727 85.64530181884766 16.575000762939453 85.57029724121094 16.575000762939453 L 79.60780334472656 16.575000762939453 L 79.60780334472656 21.712499618530273 Z " fill="#000000" stroke="none" stroke-width="1" stroke-miterlimit="4" stroke-linejoin="miter" stroke-linecap="butt" fill-rule="nonzero"/><path d="M 99.99490356445312 34.875 C 99.44490051269531 34.875 98.9823989868164 34.82500076293945 98.6073989868164 34.724998474121094 C 98.2323989868164 34.625 97.81990051269531 34.412498474121094 97.36990356445312 34.087501525878906 C 96.96990203857422 33.8125 96.5198974609375 33.42499923706055 96.0198974609375 32.92499923706055 C 95.5448989868164 32.42499923706055 95.1698989868164 31.987499237060547 94.8948974609375 31.612499237060547 C 94.56990051269531 31.162500381469727 94.3573989868164 30.75 94.25740051269531 30.375 C 94.15740203857422 30.0 94.1073989868164 29.537500381469727 94.1073989868164 28.987499237060547 L 94.1073989868164 17.887500762939453 C 94.1073989868164 17.337499618530273 94.15740203857422 16.875 94.25740051269531 16.5 C 94.3573989868164 16.125 94.56990051269531 15.712499618530273 94.8948974609375 15.262499809265137 C 95.1698989868164 14.862500190734863 95.55740356445312 14.412500381469727 96.05740356445312 13.912500381469727 C 96.55740356445312 13.412500381469727 96.99490356445312 13.037500381469727 97.36990356445312 12.787500381469727 C 97.81990051269531 12.462499618530273 98.2323989868164 12.25 98.6073989868164 12.149999618530273 C 98.9823989868164 12.050000190734863 99.44490051269531 12.0 99.99490356445312 12.0 L 105.05699920654297 12.0 C 106.08200073242188 12.0 107.0199966430664 12.324999809265137 107.87000274658203 12.975000381469727 C 108.72000122070312 13.600000381469727 109.43199920654297 14.324999809265137 110.00700378417969 15.149999618530273 C 110.55699920654297 15.925000190734863 110.98200225830078 16.737499237060547 111.28199768066406 17.587499618530273 L 107.00700378417969 18.712499618530273 C 106.38200378417969 17.587499618530273 105.74500274658203 16.8125 105.09500122070312 16.387500762939453 L 100.06999969482422 16.387500762939453 C 99.99490356445312 16.387500762939453 99.74490356445312 16.600000381469727 99.31990051269531 17.024999618530273 C 98.8948974609375 17.450000762939453 98.68240356445312 17.700000762939453 98.68240356445312 17.774999618530273 L 98.68240356445312 29.100000381469727 C 98.68240356445312 29.174999237060547 98.8948974609375 29.424999237060547 99.31990051269531 29.850000381469727 C 99.74490356445312 30.274999618530273 99.99490356445312 30.487499237060547 100.06999969482422 30.487499237060547 L 105.09500122070312 30.487499237060547 C 105.74500274658203 30.0625 106.38200378417969 29.287500381469727 107.00700378417969 28.162500381469727 L 111.28199768066406 29.287500381469727 C 110.95700073242188 30.1875 110.53199768066406 31.0 110.00700378417969 31.725000381469727 C 108.48200225830078 33.82500076293945 106.83200073242188 34.875 105.05699920654297 34.875 L 99.99490356445312 34.875 Z " fill="#000000" stroke="none" stroke-width="1" stroke-miterlimit="4" stroke-linejoin="miter" stroke-linecap="butt" fill-rule="nonzero"/><path d="M 128.07200622558594 16.575000762939453 L 117.87200164794922 16.575000762939453 L 117.87200164794922 21.1875 L 127.73400115966797 21.1875 L 127.73400115966797 25.575000762939453 L 117.87200164794922 25.575000762939453 L 117.87200164794922 30.299999237060547 L 128.07200622558594 30.299999237060547 L 128.07200622558594 34.6875 L 113.2969970703125 34.6875 L 113.2969970703125 12.1875 L 128.07200622558594 12.1875 L 128.07200622558594 16.575000762939453 Z " fill="#000000" stroke="none" stroke-width="1" stroke-miterlimit="4" stroke-linejoin="miter" stroke-linecap="butt" fill-rule="nonzero"/><path d="M 135.07000732421875 30.262500762939453 L 145.0449981689453 30.262500762939453 L 145.0449981689453 34.6875 L 130.4949951171875 34.6875 L 130.4949951171875 12.1875 L 135.07000732421875 12.1875 L 135.07000732421875 30.262500762939453 Z " fill="#000000" stroke="none" stroke-width="1" stroke-miterlimit="4" stroke-linejoin="miter" stroke-linecap="butt" fill-rule="nonzero"/><path d="M 151.38999938964844 30.262500762939453 L 161.36500549316406 30.262500762939453 L 161.36500549316406 34.6875 L 146.81500244140625 34.6875 L 146.81500244140625 12.1875 L 151.38999938964844 12.1875 L 151.38999938964844 30.262500762939453 Z " fill="#000000" stroke="none" stroke-width="1" stroke-miterlimit="4" stroke-linejoin="miter" stroke-linecap="butt" fill-rule="nonzero"/><path d="M 180.22300720214844 0.0 C 173.4720001220703 0.0 168.0 5.472340106964111 168.0 12.222800254821777 L 168.0 34.777198791503906 C 168.0 41.5276985168457 173.4720001220703 47.0 180.22300720214844 47.0 L 207.77699279785156 47.0 C 214.5279998779297 47.0 220.0 41.5276985168457 220.0 34.777198791503906 L 220.0 12.222800254821777 C 220.0 5.472340106964111 214.5279998779297 0.0 207.77699279785156 0.0 L 180.22300720214844 0.0 Z M 182.875 12.5 L 182.875 35.0 L 187.48800659179688 35.0 L 187.48800659179688 12.5 L 182.875 12.5 Z M 207.01199340820312 17.0 C 206.91200256347656 16.625 206.6999969482422 16.212499618530273 206.375 15.762499809265137 C 206.10000610351562 15.387499809265137 205.71200561523438 14.949999809265137 205.21200561523438 14.449999809265137 C 204.73699951171875 13.949999809265137 204.3000030517578 13.5625 203.89999389648438 13.287500381469727 C 203.4499969482422 12.962499618530273 203.03700256347656 12.75 202.66200256347656 12.649999618530273 C 202.28700256347656 12.550000190734863 201.8249969482422 12.5 201.27499389648438 12.5 L 190.02499389648438 12.5 L 190.02499389648438 35.0 L 201.27499389648438 35.0 C 201.8249969482422 35.0 202.28700256347656 34.95000076293945 202.66200256347656 34.849998474121094 C 203.03700256347656 34.75 203.4499969482422 34.537498474121094 203.89999389648438 34.212501525878906 C 204.27499389648438 33.962501525878906 204.71200561523438 33.587501525878906 205.21200561523438 33.087501525878906 C 205.71200561523438 32.587501525878906 206.10000610351562 32.13750076293945 206.375 31.737499237060547 C 206.6999969482422 31.287500381469727 206.91200256347656 30.875 207.01199340820312 30.5 C 207.11199951171875 30.125 207.16200256347656 29.662500381469727 207.16200256347656 29.112499237060547 L 207.16200256347656 18.387500762939453 C 207.16200256347656 17.837499618530273 207.11199951171875 17.375 207.01199340820312 17.0 Z M 201.9499969482422 17.524999618530273 C 202.375 17.950000762939453 202.58700561523438 18.200000762939453 202.58700561523438 18.274999618530273 L 202.58700561523438 29.225000381469727 C 202.58700561523438 29.299999237060547 202.375 29.549999237060547 201.9499969482422 29.975000381469727 C 201.52499389648438 30.399999618530273 201.27499389648438 30.612499237060547 201.1999969482422 30.612499237060547 L 194.60000610351562 30.612499237060547 L 194.60000610351562 16.887500762939453 L 201.1999969482422 16.887500762939453 C 201.27499389648438 16.887500762939453 201.52499389648438 17.100000381469727 201.9499969482422 17.524999618530273 Z " fill="#000000" stroke="none" stroke-width="1" stroke-miterlimit="4" stroke-linejoin="miter" stroke-linecap="butt" fill-rule="evenodd"/></svg>
