<svg xmlns="http://www.w3.org/2000/svg" width="25" height="24" viewBox="0 0 25 24"><path d="M 19.571399688720703 0.06451419740915298 C 22.594900131225586 0.06451419740915298 25.0 2.5525400638580322 25.0 5.564509868621826 L 25.0 17.56450080871582 C 25.0 20.576499938964844 22.594900131225586 23.06450080871582 19.571399688720703 23.06450080871582 L 5.428569793701172 23.06450080871582 C 2.405090093612671 23.06450080871582 0.0 20.576499938964844 0.0 17.56450080871582 L 0.0 5.564509868621826 C 0.0 2.5525400638580322 2.405090093612671 0.06451419740915298 5.428569793701172 0.06451419740915298 L 19.571399688720703 0.06451419740915298 Z M 23.5 5.564509868621826 C 23.5 3.355380058288574 21.741100311279297 1.5645099878311157 19.571399688720703 1.5645099878311157 L 5.428569793701172 1.5645099878311157 C 3.2588798999786377 1.5645099878311157 1.5 3.355380058288574 1.5 5.564509868621826 L 1.5 17.56450080871582 C 1.5 19.773700714111328 3.2588798999786377 21.56450080871582 5.428569793701172 21.56450080871582 L 19.571399688720703 21.56450080871582 C 21.741100311279297 21.56450080871582 23.5 19.773700714111328 23.5 17.56450080871582 L 23.5 5.564509868621826 Z " fill="#000000" stroke="none" stroke-width="1" stroke-miterlimit="4" stroke-linejoin="miter" stroke-linecap="butt" fill-rule="evenodd"/><path d="M 19.571399688720703 1.5645099878311157 C 21.741100311279297 1.5645099878311157 23.5 3.355380058288574 23.5 5.564509868621826 L 23.5 17.56450080871582 C 23.5 19.773700714111328 21.741100311279297 21.56450080871582 19.571399688720703 21.56450080871582 L 5.428569793701172 21.56450080871582 C 3.2588798999786377 21.56450080871582 1.5 19.773700714111328 1.5 17.56450080871582 L 1.5 5.564509868621826 C 1.5 3.355380058288574 3.2588798999786377 1.5645099878311157 5.428569793701172 1.5645099878311157 L 19.571399688720703 1.5645099878311157 Z " fill="#a1cdff" stroke="none" stroke-width="1" stroke-miterlimit="4" stroke-linejoin="miter" stroke-linecap="butt" fill-rule="evenodd"/><path d="M 13.736499786376953 4.564509868621826 L 18.718799591064453 9.527509689331055 L 13.736499786376953 14.420599937438965 L 12.262900352478027 12.952699661254883 L 14.648799896240234 10.506099700927734 L 12.262900352478027 10.506099700927734 C 10.508600234985352 10.506099700927734 9.105159759521484 11.904199600219727 9.105159759521484 13.651700019836426 L 9.105159759521484 17.845800399780273 L 7.0 17.845800399780273 L 7.0 13.651700019836426 C 7.0 10.785699844360352 9.385849952697754 8.409090042114258 12.262900352478027 8.409090042114258 L 14.648799896240234 8.409090042114258 L 12.262900352478027 6.032440185546875 L 13.736499786376953 4.564509868621826 Z " fill="#2d85f3" stroke="none" stroke-width="1" stroke-miterlimit="4" stroke-linejoin="miter" stroke-linecap="butt" fill-rule="nonzero"/><path d="M 1.7060500383377075 18.84630012512207 C 2.23078989982605 20.426700592041016 3.699199914932251 21.56450080871582 5.428609848022461 21.56450080871582 L 19.571500778198242 21.56450080871582 C 21.300899505615234 21.56450080871582 22.76930046081543 20.426799774169922 23.29400062561035 18.84630012512207 C 22.51490020751953 19.59749984741211 21.42300033569336 20.06450080871582 20.21430015563965 20.06450080871582 L 4.785749912261963 20.06450080871582 C 3.5770299434661865 20.06450080871582 2.485179901123047 19.59749984741211 1.7060500383377075 18.84630012512207 Z " fill="#3ea6ff" stroke="none" stroke-width="1" stroke-miterlimit="4" stroke-linejoin="miter" stroke-linecap="butt" fill-rule="evenodd"/></svg>
