<svg xmlns="http://www.w3.org/2000/svg" width="18" height="19" viewBox="0 0 18 19"><path d="M 14.091400146484375 0.0 C 16.268299102783203 0.0 18.0 1.7913800477981567 18.0 3.9600000381469727 L 18.0 12.600000381469727 C 18.0 14.768600463867188 16.268299102783203 16.559999465942383 14.091400146484375 16.559999465942383 L 3.9085700511932373 16.559999465942383 C 1.731660008430481 16.559999465942383 0.0 14.768600463867188 0.0 12.600000381469727 L 0.0 3.9600000381469727 C 0.0 1.7913800477981567 1.731660008430481 0.0 3.9085700511932373 0.0 L 14.091400146484375 0.0 Z M 16.920000076293945 3.9600000381469727 C 16.920000076293945 2.369420051574707 15.653599739074707 1.0800000429153442 14.091400146484375 1.0800000429153442 L 3.9085700511932373 1.0800000429153442 C 2.3463900089263916 1.0800000429153442 1.0800000429153442 2.369420051574707 1.0800000429153442 3.9600000381469727 L 1.0800000429153442 12.600000381469727 C 1.0800000429153442 14.190600395202637 2.3463900089263916 15.479999542236328 3.9085700511932373 15.479999542236328 L 14.091400146484375 15.479999542236328 C 15.653599739074707 15.479999542236328 16.920000076293945 14.190600395202637 16.920000076293945 12.600000381469727 L 16.920000076293945 3.9600000381469727 Z " fill="#000000" stroke="none" stroke-width="1" stroke-miterlimit="4" stroke-linejoin="miter" stroke-linecap="butt" fill-rule="evenodd"/><path d="M 14.091500282287598 1.0800800323486328 C 15.65369987487793 1.0800800323486328 16.92009925842285 2.369499921798706 16.92009925842285 3.9600799083709717 L 16.92009925842285 12.600099563598633 C 16.92009925842285 14.190699577331543 15.65369987487793 15.48009967803955 14.091500282287598 15.48009967803955 L 3.9086499214172363 15.48009967803955 C 2.3464701175689697 15.48009967803955 1.0800800323486328 14.190699577331543 1.0800800323486328 12.600099563598633 L 1.0800800323486328 3.9600799083709717 C 1.0800800323486328 2.369499921798706 2.3464701175689697 1.0800800323486328 3.9086499214172363 1.0800800323486328 L 14.091500282287598 1.0800800323486328 Z " fill="#a1cdff" stroke="none" stroke-width="1" stroke-miterlimit="4" stroke-linejoin="miter" stroke-linecap="butt" fill-rule="evenodd"/><path d="M 4.582029819488525 5.2993597984313965 C 4.582029819488525 5.489809989929199 4.736420154571533 5.644199848175049 4.9268598556518555 5.644199848175049 C 5.117310047149658 5.644199848175049 5.271699905395508 5.489809989929199 5.271699905395508 5.2993597984313965 L 5.271699905395508 4.6097002029418945 C 5.271699905395508 4.419250011444092 5.426089763641357 4.264860153198242 5.616529941558838 4.264860153198242 L 6.274849891662598 4.264860153198242 C 6.4653000831604 4.264860153198242 6.619679927825928 4.110479831695557 6.619679927825928 3.920030117034912 C 6.619679927825928 3.7295799255371094 6.4653000831604 3.575200080871582 6.274849891662598 3.575200080871582 L 5.616529941558838 3.575200080871582 C 5.04518985748291 3.575200080871582 4.582029819488525 4.038360118865967 4.582029819488525 4.6097002029418945 L 4.582029819488525 5.2993597984313965 Z M 11.275500297546387 3.575200080871582 C 11.085100173950195 3.575200080871582 10.930700302124023 3.7295799255371094 10.930700302124023 3.920030117034912 C 10.930700302124023 4.110469818115234 11.085100173950195 4.264860153198242 11.275500297546387 4.264860153198242 L 11.965200424194336 4.264860153198242 C 12.155599594116211 4.264860153198242 12.3100004196167 4.419250011444092 12.3100004196167 4.6097002029418945 L 12.3100004196167 5.268010139465332 C 12.3100004196167 5.458459854125977 12.464400291442871 5.612850189208984 12.654800415039062 5.612850189208984 C 12.84529972076416 5.612850189208984 12.999699592590332 5.458459854125977 12.999699592590332 5.268010139465332 L 12.999699592590332 4.6097002029418945 C 12.999699592590332 4.038360118865967 12.536499977111816 3.575200080871582 11.965200424194336 3.575200080871582 L 11.275500297546387 3.575200080871582 Z M 6.652339935302734 11.617899894714355 C 6.652339935302734 11.80840015411377 6.497960090637207 11.962800025939941 6.307509899139404 11.962800025939941 L 5.617839813232422 11.962800025939941 C 5.046500205993652 11.962800025939941 4.583340167999268 11.499600410461426 4.583340167999268 10.928299903869629 L 4.583340167999268 10.270000457763672 C 4.583340167999268 10.079500198364258 4.737730026245117 9.92512035369873 4.92818021774292 9.92512035369873 C 5.118619918823242 9.92512035369873 5.273009777069092 10.079500198364258 5.273009777069092 10.270000457763672 L 5.273009777069092 10.928299903869629 C 5.273009777069092 11.11870002746582 5.4274001121521 11.273099899291992 5.617839813232422 11.273099899291992 L 6.307509899139404 11.273099899291992 C 6.497960090637207 11.273099899291992 6.652339935302734 11.427499771118164 6.652339935302734 11.617899894714355 Z M 13.0 10.23840045928955 C 13.0 10.047900199890137 12.845600128173828 9.893540382385254 12.655200004577637 9.893540382385254 C 12.464699745178223 9.893540382385254 12.31029987335205 10.047900199890137 12.31029987335205 10.23840045928955 L 12.31029987335205 10.928000450134277 C 12.31029987335205 11.118499755859375 12.155900001525879 11.272899627685547 11.965499877929688 11.272899627685547 L 11.30720043182373 11.272899627685547 C 11.116700172424316 11.272899627685547 10.962300300598145 11.427300453186035 10.962300300598145 11.61769962310791 C 10.962300300598145 11.808199882507324 11.116700172424316 11.962499618530273 11.30720043182373 11.962499618530273 L 11.965499877929688 11.962499618530273 C 12.536800384521484 11.962499618530273 13.0 11.49940013885498 13.0 10.928000450134277 L 13.0 10.23840045928955 Z M 9.40820026397705 8.767990112304688 C 9.40820026397705 8.546910285949707 9.587420463562012 8.367690086364746 9.808500289916992 8.367690086364746 L 10.972999572753906 8.367690086364746 C 11.194100379943848 8.367690086364746 11.373299598693848 8.546910285949707 11.373299598693848 8.767990112304688 L 11.373299598693848 9.932490348815918 C 11.373299598693848 10.153599739074707 11.194100379943848 10.332799911499023 10.972999572753906 10.332799911499023 L 9.808500289916992 10.332799911499023 C 9.587420463562012 10.332799911499023 9.40820026397705 10.153599739074707 9.40820026397705 9.932490348815918 L 9.40820026397705 8.767990112304688 Z M 6.843649864196777 8.367690086364746 C 6.622580051422119 8.367690086364746 6.443359851837158 8.546910285949707 6.443359851837158 8.767990112304688 L 6.443359851837158 9.932490348815918 C 6.443359851837158 10.153599739074707 6.622580051422119 10.332799911499023 6.8436598777771 10.332799911499023 L 8.008150100708008 10.332799911499023 C 8.229229927062988 10.332799911499023 8.40845012664795 10.153599739074707 8.40845012664795 9.932490348815918 L 8.40845012664795 8.767990112304688 C 8.40845012664795 8.546910285949707 8.229229927062988 8.367690086364746 8.008150100708008 8.367690086364746 L 6.843649864196777 8.367690086364746 Z M 6.443359851837158 5.8028998374938965 C 6.443359851837158 5.581830024719238 6.622580051422119 5.402609825134277 6.843649864196777 5.402609825134277 L 8.008150100708008 5.402609825134277 C 8.229229927062988 5.402609825134277 8.40845012664795 5.581820011138916 8.40845012664795 5.8028998374938965 L 8.40845012664795 6.967400074005127 C 8.40845012664795 7.188469886779785 8.229229927062988 7.367690086364746 8.008150100708008 7.367690086364746 L 6.8436598777771 7.367690086364746 C 6.622580051422119 7.367690086364746 6.443359851837158 7.188479900360107 6.443359851837158 6.967400074005127 L 6.443359851837158 5.8028998374938965 Z M 9.808500289916992 5.402609825134277 C 9.587420463562012 5.402609825134277 9.40820026397705 5.581830024719238 9.40820026397705 5.8028998374938965 L 9.40820026397705 6.967400074005127 C 9.40820026397705 7.188479900360107 9.587420463562012 7.367690086364746 9.808500289916992 7.367690086364746 L 10.972999572753906 7.367690086364746 C 11.194100379943848 7.367690086364746 11.373299598693848 7.188469886779785 11.373299598693848 6.967400074005127 L 11.373299598693848 5.8028998374938965 C 11.373299598693848 5.581820011138916 11.194100379943848 5.402609825134277 10.972999572753906 5.402609825134277 L 9.808500289916992 5.402609825134277 Z " fill="#2d85f3" stroke="none" stroke-width="1" stroke-miterlimit="4" stroke-linejoin="miter" stroke-linecap="butt" fill-rule="evenodd"/><path d="M 1.2285200357437134 13.522899627685547 C 1.6063200235366821 14.660900115966797 2.6635799407958984 15.48009967803955 3.9087600708007812 15.48009967803955 L 14.09160041809082 15.48009967803955 C 15.336799621582031 15.48009967803955 16.393999099731445 14.660900115966797 16.771900177001953 13.52299976348877 C 16.210899353027344 14.063899993896484 15.424699783325195 14.400099754333496 14.554499626159668 14.400099754333496 L 3.4458999633789062 14.400099754333496 C 2.57561993598938 14.400099754333496 1.789489984512329 14.063899993896484 1.2285200357437134 13.522899627685547 Z " fill="#3ea6ff" stroke="none" stroke-width="1" stroke-miterlimit="4" stroke-linejoin="miter" stroke-linecap="butt" fill-rule="evenodd"/></svg>
